<svg xmlns="http://www.w3.org/2000/svg" viewBox="0 0 90 90.02"><defs><style>.cls-1{fill:#414042;}</style></defs><title>18_1</title><g id="Layer_2" data-name="Layer 2"><g id="Layer_1-2" data-name="Layer 1"><path class="cls-1" d="M74.55,11.21A43.27,43.27,0,0,0,51.17.41C50.11.25,49,.14,48,0H42c-1.26.17-2.53.32-3.8.52A44.54,44.54,0,0,0,11.54,15,43.76,43.76,0,0,0,1,35.64C.62,37.46.45,39.33.17,41.19c0,.27-.11.56-.17.84V48c.17,1.27.32,2.54.5,3.8A44.52,44.52,0,0,0,15.07,78.5,43.5,43.5,0,0,0,35.43,88.94a43.45,43.45,0,0,0,31.07-4.5c11.38-6.33,19-15.82,22.06-28.51C92.73,38.39,87.78,23.37,74.55,11.21ZM34.47,63.53a2.71,2.71,0,0,1-2.65-2.92V35.84l-.21-.1L26,41.44a2.66,2.66,0,0,1-2.77.88,2.52,2.52,0,0,1-1-.52,2.56,2.56,0,0,1-.32-3.61,18.91,18.91,0,0,1,1.58-1.65q4.43-4.44,8.89-8.87c1.38-1.38,3.08-1.4,4.1,0a3.38,3.38,0,0,1,.6,1.87V60.71a1,1,0,0,1,0,.17A2.65,2.65,0,0,1,34.47,63.53Zm28.92-9.65A10.25,10.25,0,0,1,59.71,61a10.53,10.53,0,0,1-14.14-.49C42,57,40.6,50.23,45.94,45a10.54,10.54,0,1,1,14-15.77c3.91,3.47,5.38,10.48-.06,15.78A10.52,10.52,0,0,1,63.39,53.88Z"/><path class="cls-1" d="M52.89,42.42A5.3,5.3,0,0,0,53,31.83h-.1a5.3,5.3,0,1,0,0,10.6Z"/><path class="cls-1" d="M52.89,47.66a5.28,5.28,0,0,0-5.23,5.21V53a5.3,5.3,0,1,0,5.23-5.35Z"/></g></g></svg>