<svg xmlns="http://www.w3.org/2000/svg" viewBox="0 0 90 90"><defs><style>.cls-1{fill:#414042;}</style></defs><title>birth</title><g id="Layer_2" data-name="Layer 2"><g id="Layer_1-2" data-name="Layer 1"><path class="cls-1" d="M45,0A45,45,0,1,0,90,45,45,45,0,0,0,45,0ZM35,61.85a8.34,8.34,0,0,1-9.13-4.22,49.5,49.5,0,0,1-2.95-6.25c-1.18-2.88-2.28-5.79-3.28-8.73a27.28,27.28,0,0,1-.76-3.93l.14,0A11.4,11.4,0,0,1,28.9,27.36l.14,0A11.41,11.41,0,0,1,41.9,37.05a17.48,17.48,0,0,1-.29,5.54A17.73,17.73,0,0,0,42,51C43.5,56.05,40.34,60.84,35,61.85Zm8.5-41.23a5.28,5.28,0,0,1-3.08,4.72,5.52,5.52,0,0,1-7.33-2.08c-.07-.11-.17-.21-.25-.32a4.46,4.46,0,0,1-7.14,1.34C24.49,27,23.56,27.49,21,26.85a2.48,2.48,0,0,1-.08,1.35,2.59,2.59,0,0,1-3.28,1.63,1.59,1.59,0,0,1-.34,1.73,2.15,2.15,0,0,1-1,.5,1.55,1.55,0,0,1-1.66-1.34c-.08-1,.58-1.64,1.73-1.74a2.64,2.64,0,0,1,2.95-4,3.28,3.28,0,0,1,5.09-3.61A4.35,4.35,0,0,1,27.5,17a4.27,4.27,0,0,1,4.94,1.62,18,18,0,0,1,1.13-1.83,5.25,5.25,0,0,1,3.91-2.05,4.34,4.34,0,0,0,.52-.09h.36a15.39,15.39,0,0,1,2.55,1A5.22,5.22,0,0,1,43.52,20.62ZM69.47,58.69q-2.09,5.25-4.32,10.43a10.62,10.62,0,0,1-4.67,5.33c-4.35,2.37-11.64-.1-12.71-6.24A7.83,7.83,0,0,1,48,64.28a16.11,16.11,0,0,0,.38-8.35,14.22,14.22,0,0,1,0-6.92c1.46-4.8,4.62-7.64,9.6-8.39a11.61,11.61,0,0,1,12.54,8.25c.27,1,.36,2.08.54,3.12A19.25,19.25,0,0,1,69.47,58.69Zm5.88-14.38c-.61.88-1.23,1.2-1.93,1-.87-.25-1.25-1-1.07-2.16a2.67,2.67,0,0,1-2.54-.55,2.63,2.63,0,0,1-.8-2.41c-2.86.46-3.69,0-4.72-2.63a4.44,4.44,0,0,1-7.12-1.32c-2.05,2.93-4.67,3.92-7.94,2.23a5.54,5.54,0,0,1-2.68-5.86A5.65,5.65,0,0,1,57.49,32a4.36,4.36,0,0,1,5.24-1.6c1.69.62,2.47,1.84,2.83,4.25a3.24,3.24,0,0,1,3.86,0,3.19,3.19,0,0,1,1.21,3.68,2.62,2.62,0,0,1,2.92.95,2.58,2.58,0,0,1,0,3.06,1.72,1.72,0,0,1,1.8,1.19Z"/></g></g></svg>