<svg xmlns="http://www.w3.org/2000/svg" viewBox="0 0 90 90"><defs><style>.cls-1{fill:#414042;}</style></defs><title>docs</title><g id="Layer_2" data-name="Layer 2"><g id="Layer_1-2" data-name="Layer 1"><path class="cls-1" d="M45,0A45,45,0,1,0,90,45,45,45,0,0,0,45,0ZM67.34,65.55v.53a.81.81,0,0,1-.44-.31q-5-5-9.91-9.89c-.31-.31-.29-.51-.08-.86a13.55,13.55,0,0,0,1.61-10.57,13.92,13.92,0,1,0-6.26,15.2.55.55,0,0,1,.81.11Q58.88,65.6,64.7,71.4a4.25,4.25,0,0,0,.43.31l-.39.3a9.12,9.12,0,0,1-2.08.89H27.36l-.07-.07a5.88,5.88,0,0,1-4.64-6c.07-13.61,0-27.2.05-40.8V22.83a5.71,5.71,0,0,1,5.69-5.73h.09c7.21.06,14.42,0,21.62,0a1.06,1.06,0,0,1,.85.35l16,16a1.11,1.11,0,0,1,.36.91Q67.32,50,67.34,65.55ZM53.52,47.65a8.37,8.37,0,0,1-8.21,8.53H45a8.37,8.37,0,1,1,8.48-8.53Z"/></g></g></svg>