<svg xmlns="http://www.w3.org/2000/svg" viewBox="0 0 90 90"><defs><style>.cls-1{fill:#414042;}</style></defs><title>tax</title><g id="Layer_2" data-name="Layer 2"><g id="Layer_1-2" data-name="Layer 1"><path class="cls-1" d="M55.05,60.16l-10,0H35c-.43,0-.6,0-.58.57a11.18,11.18,0,0,1,0,1.83c0,.46.13.59.58.59h20.1c.35,0,.5,0,.48-.46a13.22,13.22,0,0,1,0-2C55.57,60.27,55.46,60.16,55.05,60.16Z"/><path class="cls-1" d="M39,38.45,40.62,40s0,.2.15.2l.2-.17c3.37-3.38,6.72-6.78,10.14-10.13.22-.21.17-.34,0-.52-.52-.5-1-1-1.51-1.51s-.37-.28-.65,0c-1.86,1.86-3.74,3.72-5.58,5.58L39,37.9C38.85,38.1,38.76,38.21,39,38.45Z"/><path class="cls-1" d="M40.66,31.57h.05a1.9,1.9,0,0,0,1.92-1.89V29.6a2,2,0,1,0-2,2Z"/><path class="cls-1" d="M49.36,36.28h-.07a2,2,0,0,0,0,3.94,1.94,1.94,0,0,0,2-1.9v-.07A1.94,1.94,0,0,0,49.36,36.28Z"/><path class="cls-1" d="M55.07,52.7l-10,.07H34.89c-.37,0-.48.1-.46.47,0,.63,0,1.26,0,1.88s.13.61.61.61h20.2c.26,0,.35,0,.35-.35V53.22C55.59,52.46,55.48,52.7,55.07,52.7Z"/><path class="cls-1" d="M45,0A45,45,0,1,0,90,45,45,45,0,0,0,45,0ZM63.92,70.51H26.06V20.12c0-.5.11-.63.61-.63H63.31c.52,0,.63.13.63.63Q63.9,45.3,63.92,70.51Z"/><path class="cls-1" d="M55.05,45.45l-10-.06H34.89c-.35,0-.48,0-.46.48s0,1.25,0,1.88c0,.47.11.6.61.6H55.2c.28,0,.39,0,.39-.39v-2C55.59,45.26,55.46,45.45,55.05,45.45Z"/></g></g></svg>