<svg xmlns="http://www.w3.org/2000/svg" viewBox="0 0 90 90"><defs><style>.cls-1{fill:#414042;}</style></defs><title>work</title><g id="Layer_2" data-name="Layer 2"><g id="Layer_1-2" data-name="Layer 1"><path class="cls-1" d="M45,0A45,45,0,1,0,90,45,45,45,0,0,0,45,0ZM34.8,20.43a11.65,11.65,0,0,1,9.1-4.33,18.43,18.43,0,0,1,5.54.47,12.51,12.51,0,0,1,7.72,6.92c-1.33,0-2.53,0-3.73,0a.82.82,0,0,1-.49-.32,8.47,8.47,0,0,0-6.87-3.48,13.54,13.54,0,0,0-4.86.45,8.51,8.51,0,0,0-4.08,2.95.85.85,0,0,1-.79.42c-1.12,0-2.25,0-3.44,0A10.86,10.86,0,0,1,34.8,20.43ZM72.22,73.9h-.5q-26.7,0-53.4,0a2.09,2.09,0,0,1-2.22-1.33V48.2l7.79,1.27L35,51.31l3.48.58v5.93a1.71,1.71,0,0,0,1.81,1.93h9.48a1.71,1.71,0,0,0,1.84-1.91v-6l22.29-3.93a2.36,2.36,0,0,1,0,.28v24A1.7,1.7,0,0,1,72.22,73.9ZM41.83,56.15V52.42a10.8,10.8,0,0,0,6.32,0v3.76ZM73.9,44.25a1.71,1.71,0,0,1-.42.12L61.06,46.54l-12.44,2.2A16.12,16.12,0,0,1,42.5,49c-3.9-.8-7.86-1.35-11.79-2l-11-1.85c-1.18-.19-2.37-.34-3.56-.52V28.36a2.06,2.06,0,0,1,2-1.3H71.9c1.35,0,2,.7,2,2.12Z"/></g></g></svg>