<svg xmlns="http://www.w3.org/2000/svg" viewBox="0 0 90 90"><defs><style>.cls-1{fill:#414042;}</style></defs><title>land</title><g id="Layer_2" data-name="Layer 2"><g id="Layer_1-2" data-name="Layer 1"><path class="cls-1" d="M25.67,48.21c-.91.41-1.82.79-2.71,1.25a.79.79,0,0,0-.3.69c.59,1.44,1.23,2.85,1.88,4.32l4-1.29c-.7-1.59-1.37-3.08-2-4.57C26.36,48.18,26.11,48,25.67,48.21Z"/><rect class="cls-1" x="45.07" y="42.33" width="3.36" height="7.74"/><rect class="cls-1" x="50.13" y="42.37" width="3.36" height="7.71"/><polygon class="cls-1" points="18.62 51.14 20.54 55.49 22.46 54.62 20.54 50.3 18.62 51.14"/><polygon class="cls-1" points="15.78 52.46 17.7 56.78 19.62 55.91 17.7 51.55 15.78 52.46"/><polygon class="cls-1" points="69.02 50.29 67.09 54.62 69.02 55.47 70.94 51.15 69.02 50.29"/><path class="cls-1" d="M66.56,49.41l-2.64-1.19a.58.58,0,0,0-.81.16.5.5,0,0,0-.08.2l-2,4.41v0c1.28.42,2.47.83,3.68,1.19.13,0,.43-.17.51-.33.55-1.18,1-2.4,1.6-3.56C67.08,49.87,67,49.6,66.56,49.41Z"/><path class="cls-1" d="M45,0A45,45,0,1,0,90,45,45,45,0,0,0,45,0ZM74.31,40.3c1,1.25,2.08,2.45,3.16,3.72.54-.56,1.06-1,1.75-.48a1.23,1.23,0,0,1,.28,1.77,1.07,1.07,0,0,0,.25,1.44c.46.49.9,1,1.32,1.54.57.71.57,1.38,0,1.87s-1.24.33-1.82-.35Q76.1,46.12,73,42.39a1.24,1.24,0,0,0-1.13-.51c-3,.14-6.07.24-9.13.34a2.69,2.69,0,0,1-.89-.06,1,1,0,0,1-.8-1.11A2.33,2.33,0,0,1,61.8,40c.17-.15.52-.13.78-.14,3.29-.12,6.58-.22,9.86-.36A2.06,2.06,0,0,1,74.31,40.3ZM27.78,31.56A10.8,10.8,0,0,1,28.85,31l14.45-7.2a2.77,2.77,0,0,1,2.76-.06c2.22,1.12,4.48,2.16,6.72,3.24l.77.34c.07-.21.11-.32.14-.44a2,2,0,0,1,1.79-1.57,1.93,1.93,0,0,1,1.78,1.57,7.13,7.13,0,0,1,.13,1.72.8.8,0,0,0,.54.86q2.07.95,4.11,2a2,2,0,0,1,1.06,2A1.81,1.81,0,0,1,61.6,35a3.14,3.14,0,0,1-1.56-.3q-7.34-3.48-14.63-7a1.41,1.41,0,0,0-1.38,0q-7,3.54-14.06,7a3,3,0,0,1-1.7.24,1.6,1.6,0,0,1-1.34-1.44A1.91,1.91,0,0,1,27.78,31.56ZM8.2,48.69a.39.39,0,0,1,.08-.1A24.91,24.91,0,0,1,10,46.5a.75.75,0,0,0,.13-1,.75.75,0,0,1-.1-.2c-.33-.82-.2-1.48.36-1.82s1-.17,1.68.58c1.12-1.31,2.2-2.56,3.25-3.84a1.85,1.85,0,0,1,1.61-.73l10.16.36c.89,0,1.44.48,1.44,1.21S28,42.27,27,42.24c-3.14-.1-6.28-.24-9.41-.32a1.5,1.5,0,0,0-1,.45c-2.1,2.43-4.16,4.9-6.24,7.34-.21.25-.48.59-.73.61A2,2,0,0,1,8.39,50,1,1,0,0,1,8.2,48.69Zm42.62,17.9a14.5,14.5,0,0,0,.48-2.34,18.91,18.91,0,0,0-.07-4A4.82,4.82,0,0,0,48.7,57c-1.74-1.08-3.49-2.14-5.17-3.31a3.76,3.76,0,0,1-1.7-3.55c.12-2.11,0-4.24,0-6.36,0-1-.14-1.08-1.09-1.08H35.91c-.68,0-.93.28-.93,1,0,2.67-.16,5.36,0,8,.28,3.65,1.74,6.66,5.29,8.17a14.3,14.3,0,0,1,6.36,4.85c.39.56.71,1.18,1.16,1.92H6.71v-.12a41.47,41.47,0,0,1,2.94-3c1.8-1.54,3.71-3,5.57-4.42.26-.2.54-.36.71-.48-1.34-3-2.66-6-3.93-8.93a.76.76,0,0,1,.12-.64c1.69-2,3.36-4,5.12-5.93a1.29,1.29,0,0,1,.9-.35q3.84.1,7.68.28a.87.87,0,0,1,.64.44q1.72,3.77,3.37,7.58a16.3,16.3,0,0,1,.48,1.69L32,52.36c-.08-1.58-.21-3-.23-4.52,0-3.94,0-7.88,0-11.81a.91.91,0,0,1,.6-1l11.76-5.76a1.44,1.44,0,0,1,1.08,0c3.88,1.77,7.73,3.59,11.6,5.38a1,1,0,0,1,.68,1.07c0,4.42,0,8.84,0,13.25A23.76,23.76,0,0,1,57,52l2.15.49c1.34-3.06,2.64-6.07,4-9.06a1,1,0,0,1,.7-.48c2.54-.12,5.08-.22,7.62-.28a1.52,1.52,0,0,1,1,.43c1.68,1.9,3.31,3.85,5,5.77a.72.72,0,0,1,.12,1c-1.13,2.52-2.23,5.06-3.36,7.58a10.82,10.82,0,0,1-.6,1,46.21,46.21,0,0,1,9.7,8.1Z"/><polygon class="cls-1" points="71.86 51.58 69.94 55.93 71.86 56.8 73.79 52.45 71.86 51.58"/></g></g></svg>